<?xml version="1.0" encoding="utf-8"?>
<!-- Generator: Adobe Illustrator 16.0.0, SVG Export Plug-In . SVG Version: 6.00 Build 0)  -->
<!DOCTYPE svg PUBLIC "-//W3C//DTD SVG 1.1//EN" "http://www.w3.org/Graphics/SVG/1.1/DTD/svg11.dtd">
<svg version="1.1" id="Layer_1" xmlns="http://www.w3.org/2000/svg" xmlns:xlink="http://www.w3.org/1999/xlink" x="0px" y="0px"
	 width="212.961px" height="124.764px" viewBox="0 0 212.961 124.764" enable-background="new 0 0 212.961 124.764"
	 xml:space="preserve">
<path d="M70.375,117.23c-7.166,4.961-16.721,7.534-25.356,7.534c-20.212-0.184-30.502-11.76-30.502-33.442V42.813H0V24.438h14.516
	V3.124L40.608,0v24.438h22.417l-2.572,18.375H40.608v47.958c0,9.555,3.124,13.23,9.738,13.23c3.491,0,6.982-1.103,11.025-3.491
	L70.375,117.23z"/>
<path d="M212.961,50.897v70.926H186.87V55.308c0-11.208-4.41-14.333-9.555-14.333c-7.166,0-11.943,4.961-16.904,13.598v67.251
	h-26.093V55.308c0-11.208-4.226-14.333-9.555-14.333c-7.166,0-11.943,4.961-16.721,13.598v67.251H81.951V24.438h22.601l2.021,12.127
	c7.166-9.739,15.985-15.067,28.297-15.067c11.024,0,19.478,5.696,23.336,15.986c7.533-10.29,16.354-15.986,29.031-15.986
	C202.488,21.498,212.961,32.523,212.961,50.897z"/>
</svg>
